<?xml version="1.0" encoding="utf-8"?>
<!-- Generator: Adobe Illustrator 15.1.0, SVG Export Plug-In . SVG Version: 6.00 Build 0)  -->
<!DOCTYPE svg PUBLIC "-//W3C//DTD SVG 1.1//EN" "http://www.w3.org/Graphics/SVG/1.1/DTD/svg11.dtd">
<svg version="1.1" id="Layer_1" xmlns="http://www.w3.org/2000/svg" xmlns:xlink="http://www.w3.org/1999/xlink" x="0px" y="0px"
	 width="600px" height="600px" viewBox="0 0 600 600" enable-background="new 0 0 600 600" xml:space="preserve">
<path d="M300,312.25c-11.531,0-22.735-11.072-23.207-11.543L276.086,300l0.707-0.707c0.472-0.471,11.676-11.543,23.207-11.543
	s22.735,11.072,23.207,11.543l0.707,0.707l-0.707,0.707C322.735,301.178,311.531,312.25,300,312.25z M278.959,300
	c2.662,2.426,11.955,10.25,21.041,10.25s18.379-7.824,21.041-10.25c-2.662-2.425-11.955-10.25-21.041-10.25
	S281.621,297.575,278.959,300z"/>
<path fill="#FFFFFF" d="M277.5,300c0,0,11.25-11.25,22.5-11.25S322.5,300,322.5,300s-11.25,11.25-22.5,11.25S277.5,300,277.5,300z"
	/>
<g>
	<circle cx="300" cy="300" r="8.438"/>
</g>
</svg>
